<?xml version="1.0" standalone="no"?>
<!DOCTYPE svg PUBLIC "-//W3C//DTD SVG 20010904//EN"
 "http://www.w3.org/TR/2001/REC-SVG-20010904/DTD/svg10.dtd">
<svg version="1.0" xmlns="http://www.w3.org/2000/svg"
 width="474.000000pt" height="343.000000pt" viewBox="0 0 474.000000 343.000000"
 preserveAspectRatio="xMidYMid meet">

<g transform="translate(0.000000,343.000000) scale(0.100000,-0.100000)"
fill="#000000" stroke="none">
<path d="M4298 3423 c-1 -5 -24 -19 -50 -32 -48 -24 -141 -116 -1510 -1496
-262 -264 -607 -613 -767 -775 l-291 -295 -102 105 c-296 304 -800 821 -918
941 -118 119 -142 139 -193 158 -167 61 -348 -6 -423 -156 -16 -32 -32 -59
-36 -61 -5 -2 -8 -49 -8 -103 0 -64 4 -98 10 -94 5 3 10 0 10 -7 0 -7 10 -32
23 -56 21 -40 158 -183 938 -982 190 -195 368 -379 395 -409 45 -50 171 -141
194 -141 6 0 10 -4 10 -10 0 -12 187 -14 192 -2 2 4 29 20 61 37 64 33 26 -5
2433 2425 346 349 424 433 440 472 10 27 22 48 27 48 4 0 7 45 7 100 0 55 -3
100 -7 100 -5 0 -16 20 -26 44 -24 57 -96 130 -158 158 -27 13 -49 26 -49 30
0 10 -197 10 -202 1z"/>
</g>
</svg>
