<?xml version="1.0" standalone="no"?>
<!DOCTYPE svg PUBLIC "-//W3C//DTD SVG 20010904//EN"
 "http://www.w3.org/TR/2001/REC-SVG-20010904/DTD/svg10.dtd">
<svg version="1.0" xmlns="http://www.w3.org/2000/svg"
 width="217.000000pt" height="225.000000pt" viewBox="0 0 217.000000 225.000000"
 preserveAspectRatio="xMidYMid meet">

<g transform="translate(0.000000,225.000000) scale(0.100000,-0.100000)"
fill="#000000" stroke="none">
<path d="M163 1905 c-17 -7 -36 -22 -42 -33 -15 -28 -16 -289 -1 -307 7 -8 28
-15 46 -15 l34 0 0 -531 c0 -378 3 -543 12 -571 16 -56 61 -95 122 -108 35 -8
276 -10 786 -8 l735 3 35 22 c19 12 44 37 55 55 19 32 20 53 23 586 l3 552 39
0 c57 0 63 18 58 169 -5 141 -13 166 -63 187 -50 21 -1794 20 -1842 -1z m1811
-91 c3 -9 6 -51 6 -95 l0 -79 -893 0 -893 0 2 78 c1 42 2 85 3 95 1 16 50 17
885 17 797 0 884 -2 890 -16z m-96 -809 c-3 -507 -4 -546 -21 -562 -17 -17
-63 -18 -755 -21 -547 -2 -744 1 -765 9 -16 7 -33 23 -38 36 -5 14 -9 257 -9
554 l0 529 795 0 795 0 -2 -545z"/>
<path d="M682 1438 c-18 -18 -16 -162 4 -199 9 -18 32 -38 57 -50 38 -17 69
-19 347 -19 334 0 350 2 393 61 26 36 33 163 12 196 l-15 23 -393 0 c-292 0
-396 -3 -405 -12z m738 -108 c0 -17 -9 -39 -20 -50 -19 -19 -33 -20 -311 -20
-181 0 -298 4 -310 10 -14 8 -19 21 -19 50 l0 40 330 0 330 0 0 -30z"/>
</g>
</svg>
