<?xml version="1.0" standalone="no"?>
<!DOCTYPE svg PUBLIC "-//W3C//DTD SVG 20010904//EN"
 "http://www.w3.org/TR/2001/REC-SVG-20010904/DTD/svg10.dtd">
<svg version="1.0" xmlns="http://www.w3.org/2000/svg"
 width="512.000000pt" height="512.000000pt" viewBox="0 0 512.000000 512.000000"
 preserveAspectRatio="xMidYMid meet">

<g transform="translate(0.000000,512.000000) scale(0.100000,-0.100000)"
fill="#000000" stroke="none">
<path d="M2 4378 c1 -409 4 -691 7 -628 5 94 14 139 46 249 37 123 42 134 68
144 20 6 34 23 47 52 18 42 18 42 78 47 51 4 71 11 129 49 77 52 133 73 171
66 16 -3 35 2 52 15 34 24 134 39 247 34 79 -3 95 -7 158 -40 65 -34 86 -39
310 -71 262 -38 417 -68 583 -113 154 -43 190 -46 287 -27 52 11 106 15 142
11 32 -3 117 -10 188 -15 72 -6 159 -15 195 -21 36 -6 148 -13 250 -16 178 -5
187 -7 252 -35 97 -43 180 -55 288 -41 48 7 107 19 131 28 24 9 85 19 134 24
62 6 109 17 150 35 50 23 68 26 110 20 76 -10 85 -9 126 24 21 17 47 31 58 31
27 0 51 26 51 55 0 22 10 27 101 55 101 31 122 33 100 6 -9 -11 7 -20 96 -54
99 -36 108 -42 115 -71 5 -18 22 -40 44 -55 20 -13 47 -41 61 -61 l25 -36 89
7 c105 8 162 -8 204 -57 l25 -31 0 581 0 581 -2560 0 -2560 0 2 -742z"/>
<path d="M5083 3842 c-21 -42 -33 -83 -33 -108 0 -72 -51 -105 -127 -83 -55
15 -63 7 -63 -69 0 -56 20 -105 87 -209 59 -93 82 -154 89 -235 l7 -75 -79
-44 c-75 -42 -83 -44 -164 -45 -47 -1 -97 -7 -112 -12 -53 -22 -142 -24 -261
-8 -114 16 -119 16 -162 -3 -51 -23 -197 -159 -262 -245 -58 -78 -86 -134
-139 -280 -48 -132 -76 -175 -139 -215 -24 -15 -63 -47 -87 -72 -24 -24 -75
-63 -115 -87 -118 -69 -173 -148 -211 -302 -64 -258 -121 -524 -127 -585 -3
-38 -1 -104 4 -145 11 -83 27 -104 107 -140 62 -27 85 -108 43 -146 -27 -25
-175 -31 -293 -13 -44 6 -145 11 -224 10 -174 -3 -209 6 -218 55 -11 62 5 144
37 184 38 47 49 88 50 185 1 94 -10 142 -58 250 -38 84 -59 187 -108 534 -28
193 -40 226 -98 254 -34 17 -51 18 -237 8 -316 -17 -404 -14 -585 18 -88 16
-185 39 -215 52 -30 13 -95 56 -144 96 -92 74 -122 85 -150 58 -8 -8 -40 -94
-71 -190 -33 -102 -77 -213 -106 -267 -26 -51 -68 -131 -91 -178 l-43 -85 -3
-130 c-4 -158 16 -328 59 -507 26 -106 37 -136 57 -152 115 -95 167 -165 142
-190 -7 -7 -76 -11 -219 -11 -257 0 -245 -6 -254 128 -8 118 -49 281 -135 537
-85 252 -90 263 -101 256 -5 -3 -12 -22 -15 -41 -9 -48 -22 -44 -30 10 -7 46
-14 53 -33 34 -13 -13 -17 -2 -33 101 -18 115 -18 115 -42 93 -24 -21 -24 -27
8 79 l17 57 -47 71 c-25 39 -51 68 -56 65 -14 -8 -13 3 9 140 58 354 57 366
-98 1220 -5 31 -9 -625 -10 -1707 l-1 -1758 2560 0 2560 0 0 1955 c0 1075 -1
1955 -2 1955 -2 0 -18 -31 -35 -68z"/>
<path d="M2911 1280 c-17 -79 -13 -184 11 -284 21 -90 21 -91 34 -61 26 59 7
382 -23 392 -6 2 -16 -16 -22 -47z"/>
</g>
</svg>
