<?xml version="1.0" standalone="no"?>
<!DOCTYPE svg PUBLIC "-//W3C//DTD SVG 20010904//EN"
 "http://www.w3.org/TR/2001/REC-SVG-20010904/DTD/svg10.dtd">
<svg version="1.0" xmlns="http://www.w3.org/2000/svg"
 width="888.000000pt" height="980.000000pt" viewBox="0 0 888.000000 980.000000"
 preserveAspectRatio="xMidYMid meet">

<g transform="translate(0.000000,980.000000) scale(0.100000,-0.100000)"
fill="#000000" stroke="none">
<path d="M3697 9789 c-81 -4 -239 -17 -350 -29 -1554 -158 -2707 -600 -3157
-1210 -34 -47 -91 -145 -126 -217 l-64 -132 0 -3297 0 -3296 54 -113 c101
-212 224 -373 394 -516 546 -458 1536 -786 2787 -924 460 -50 1018 -66 1635
-46 563 18 758 33 1130 87 1055 152 1923 461 2415 859 187 152 314 305 411
497 l54 108 0 3332 0 3333 -58 115 c-85 170 -143 252 -277 385 -280 280 -707
510 -1292 699 -531 170 -1296 312 -1863 346 -470 28 -1350 38 -1693 19z m1003
-389 c605 -14 818 -29 1210 -86 1355 -196 2365 -650 2561 -1153 31 -79 32
-213 2 -294 -111 -297 -545 -607 -1164 -831 -500 -180 -1298 -345 -1864 -385
-505 -36 -1618 -40 -1940 -7 -1260 128 -2189 405 -2753 820 -111 82 -242 221
-285 302 -71 136 -84 281 -37 407 43 116 179 269 352 399 434 326 1191 588
2103 727 392 60 690 91 975 101 313 10 393 10 840 0z m-4125 -2301 c508 -375
1436 -671 2548 -814 277 -35 466 -44 1067 -51 585 -7 1189 6 1428 31 321 34
768 109 1077 181 723 169 1283 399 1665 685 67 49 124 89 126 86 8 -8 3 -1265
-5 -1323 -5 -34 -15 -73 -22 -85 -53 -102 -192 -259 -314 -358 -186 -149 -506
-312 -861 -439 -513 -183 -1314 -345 -1889 -381 -555 -36 -1515 -39 -1860 -6
-990 93 -1812 296 -2405 591 -423 211 -679 454 -720 684 -21 118 -41 1189 -24
1292 l6 37 47 -31 c25 -18 87 -62 136 -99z m-25 -1999 c550 -407 1447 -692
2640 -840 262 -33 562 -43 1265 -43 732 0 1004 10 1305 49 867 109 1608 309
2165 584 182 90 294 158 448 272 59 44 110 79 112 76 9 -9 5 -1433 -4 -1495
-23 -154 -188 -339 -471 -528 -233 -155 -459 -259 -840 -385 -725 -240 -1508
-355 -2565 -376 -1234 -25 -2389 153 -3200 493 -502 211 -830 445 -948 678
-50 100 -56 142 -67 460 -11 333 -13 1069 -4 1128 l7 38 26 -17 c14 -9 73 -52
131 -94z m-32 -2164 c158 -114 272 -184 421 -260 468 -237 1039 -410 1736
-525 290 -48 431 -66 900 -113 93 -9 318 -13 785 -13 818 1 1095 14 1545 76
859 117 1568 321 2095 602 107 57 358 216 481 306 19 13 19 2 19 -520 0 -725
-12 -859 -82 -963 -332 -488 -1315 -881 -2653 -1060 -266 -36 -555 -54 -1047
-66 -611 -15 -989 -2 -1448 50 -1052 121 -1885 373 -2435 738 -235 156 -401
351 -425 498 -12 76 -30 646 -30 974 0 235 6 360 17 360 3 0 57 -38 121 -84z"/>
</g>
</svg>
