<?xml version="1.0" encoding="iso-8859-1"?>
<!-- Generator: Adobe Illustrator 18.1.1, SVG Export Plug-In . SVG Version: 6.00 Build 0)  -->
<svg version="1.1" id="Capa_1" xmlns="http://www.w3.org/2000/svg" xmlns:xlink="http://www.w3.org/1999/xlink" x="0px" y="0px"
	 viewBox="0 0 280.324 280.324" style="enable-background:new 0 0 280.324 280.324;" xml:space="preserve">
<g>
	<path style="fill:#010002;" d="M234.176,173.142V124.19c0-9.013,4.928-16.317,11.014-16.317h11.009
		c10.514,0,19.037-8.523,19.037-19.037S266.713,69.8,256.199,69.8c0,0-4.928,0-11.009,0c-6.086,0-11.014-7.305-11.014-16.317V19.037
		C234.176,8.523,225.653,0,215.139,0c-10.514,0-19.037,8.523-19.037,19.037v34.446c0,9.013-7.305,16.317-16.317,16.317h-76.147
		c-9.013,0-16.317-7.305-16.317-16.317V19.037C87.321,8.523,78.798,0,68.285,0S49.248,8.523,49.248,19.037v34.446
		c0,9.013-5.624,16.317-12.559,16.317H24.125c-10.514,0-19.037,8.523-19.037,19.037s8.523,19.037,19.037,19.037
		c0,0,5.624,0,12.564,0c6.929,0,12.559,7.305,12.559,16.317v48.952c0,9.013-5.624,16.317-12.559,16.317H24.125
		c-10.514,0-19.037,8.523-19.037,19.037s8.523,19.037,19.037,19.037c0,0,5.624,0,12.564,0c6.929,0,12.559,5.276,12.559,11.786
		c0,0,0,2.638,0,5.891c0,3.258-2.535,7.664-6.168,8.556c-1.931,0.473-4.215,0.783-6.723,0.669c-4.591-0.201-9.105-1.61-12.553-4.204
		l-0.854-0.642c-7.196-5.423-12.064-2.578-10.867,6.358l1.104,8.202c1.197,8.936,9.469,16.176,18.482,16.176H246.24
		c9.013,0,17.525-7.201,19.015-16.094l2.763-16.518c1.49-8.893-1.256-10.644-6.141-3.922c-4.879,6.728-10.095,6.728-11.645,0
		c-1.55-6.723-4.901-9.029-7.479-5.145c-0.946,1.43-2.279,2.747-3.791,3.84c-2.426,1.762-4.792-1.403-4.792-6.222
		s4.933-8.73,11.02-8.73h11.009c10.514,0,19.037-8.523,19.037-19.037s-8.523-19.037-19.037-19.037c0,0-4.928,0-11.009,0
		C239.104,189.459,234.176,182.154,234.176,173.142z M103.639,107.873h76.147c9.013,0,16.317,7.305,16.317,16.317v48.952
		c0,9.013-7.305,16.317-16.317,16.317h-76.147c-9.013,0-16.317-7.305-16.317-16.317V124.19
		C87.321,115.178,94.621,107.873,103.639,107.873z M176.212,250.817c-2.627-2.845-5.064-8.295-5.439-12.178
		c-0.375-3.883-5.374-1.43-11.166,5.477l-2.866,3.427c-5.787,6.908-16.399,9.284-23.687,5.319c-7.288-3.971-19.602-3.971-27.516,0
		c-2.703,1.36-5.869,2.083-9.138,2.23c-5.227,0.234-9.257-1.762-9.17-2.556c0.054-0.468,0.092-0.946,0.092-1.43
		c0,0,0-5.276,0-11.786c0-6.511,7.305-11.786,16.317-11.786h76.147c9.013,0,16.317,2.518,16.317,5.619
		c0,3.106-2.284,5.629-4.444,7.136c-1.186,0.821-2.274,1.985-3.204,3.497C184.322,250.518,178.845,253.662,176.212,250.817z"/>
</g>
<g>
</g>
<g>
</g>
<g>
</g>
<g>
</g>
<g>
</g>
<g>
</g>
<g>
</g>
<g>
</g>
<g>
</g>
<g>
</g>
<g>
</g>
<g>
</g>
<g>
</g>
<g>
</g>
<g>
</g>
</svg>
