<?xml version="1.0" standalone="no"?>
<!DOCTYPE svg PUBLIC "-//W3C//DTD SVG 20010904//EN"
 "http://www.w3.org/TR/2001/REC-SVG-20010904/DTD/svg10.dtd">
<svg version="1.0" xmlns="http://www.w3.org/2000/svg"
 width="980.000000pt" height="980.000000pt" viewBox="0 0 980.000000 980.000000"
 preserveAspectRatio="xMidYMid meet">

<g transform="translate(0.000000,980.000000) scale(0.100000,-0.100000)"
fill="#000000" stroke="none">
<path d="M4560 9789 c-1035 -75 -1992 -461 -2800 -1127 -148 -122 -500 -474
-622 -622 -534 -647 -880 -1372 -1042 -2180 -259 -1291 18 -2648 761 -3727
277 -403 628 -778 1018 -1087 440 -348 980 -636 1525 -811 1440 -463 3025
-232 4267 622 407 279 799 649 1099 1034 471 605 789 1301 938 2049 300 1503
-115 3044 -1130 4200 -111 126 -387 398 -504 496 -781 653 -1664 1030 -2670
1139 -174 19 -664 27 -840 14z m862 -705 c1128 -144 2139 -723 2823 -1615 84
-109 276 -391 270 -397 -2 -2 -31 18 -65 44 -199 151 -478 257 -830 316 -161
26 -387 28 -514 4 -224 -43 -474 -174 -632 -331 -94 -93 -150 -185 -193 -321
-53 -164 -65 -255 -66 -514 0 -207 3 -249 23 -349 71 -350 236 -583 505 -716
169 -83 349 -115 639 -114 175 0 225 -9 323 -58 74 -38 148 -120 194 -216 64
-130 82 -222 88 -434 8 -279 -26 -549 -89 -695 -63 -149 -141 -377 -180 -528
-49 -191 -62 -375 -34 -473 42 -145 163 -177 421 -112 116 29 235 85 358 167
53 36 97 63 97 61 0 -11 -77 -133 -171 -273 -526 -777 -1311 -1365 -2204
-1649 -1414 -451 -2951 -130 -4068 849 -1066 934 -1591 2344 -1396 3750 62
445 195 879 389 1270 73 148 152 291 157 286 2 -2 40 -159 83 -347 107 -471
124 -537 159 -621 69 -164 176 -322 250 -370 56 -35 85 -35 121 0 51 51 62
169 35 379 -26 196 -40 218 -151 235 -38 5 -76 13 -84 17 -44 22 -30 214 23
321 31 62 37 68 170 158 121 81 144 93 175 90 33 -3 40 -9 62 -50 36 -66 65
-94 134 -128 70 -35 142 -40 174 -12 12 9 45 80 75 157 151 391 305 660 477
835 161 164 246 196 721 270 303 47 416 86 461 158 19 30 20 44 15 135 -6 121
-32 201 -86 260 -92 102 -179 89 -439 -65 -120 -71 -163 -92 -200 -95 -41 -4
-50 -2 -72 21 -49 53 -24 132 69 219 167 156 578 321 857 343 94 8 144 -5 174
-43 27 -35 36 -75 54 -230 18 -150 35 -202 79 -239 28 -23 38 -26 87 -21 171
15 452 265 529 471 31 85 35 135 13 179 l-20 37 43 0 c24 0 99 -7 167 -16z"/>
<path d="M2150 5526 c-64 -18 -125 -51 -170 -92 -62 -56 -84 -145 -101 -419
-27 -423 34 -993 125 -1175 14 -29 61 -86 108 -133 220 -218 460 -583 539
-817 17 -50 24 -102 30 -225 8 -180 32 -313 86 -480 78 -242 154 -383 276
-514 45 -48 134 -143 197 -211 63 -68 135 -136 159 -152 61 -38 119 -38 162 0
62 55 56 128 -30 365 -83 232 -95 283 -96 413 0 107 1 112 37 186 47 95 118
188 383 508 502 605 663 847 746 1120 27 90 30 213 6 277 -39 105 -166 254
-283 332 -90 61 -177 96 -388 161 -203 62 -244 81 -337 163 -397 347 -775 584
-1077 673 -105 32 -298 42 -372 20z"/>
</g>
</svg>
